<svg width="27" height="27" viewBox="0 0 27 27" fill="none" xmlns="http://www.w3.org/2000/svg">
<path d="M13.5 25.0566C19.8825 25.0566 25.0566 19.8825 25.0566 13.5C25.0566 7.11746 19.8825 1.94339 13.5 1.94339C7.11743 1.94339 1.94336 7.11746 1.94336 13.5C1.94336 19.8825 7.11743 25.0566 13.5 25.0566Z" stroke="white" stroke-width="2.5"/>
<path d="M15.7012 17.6667C15.6225 17.588 15.6225 17.4308 15.5439 17.2736C15.5439 17.1163 15.4653 16.9591 15.4653 16.8019C15.3081 16.9591 15.1508 17.0377 14.9936 17.195C14.8364 17.3522 14.6005 17.4308 14.4433 17.5094C14.2074 17.588 14.0502 17.6667 13.7358 17.7453C13.4999 17.8239 13.1854 17.8239 12.9496 17.8239C12.4779 17.8239 12.0848 17.7453 11.6917 17.588C11.2986 17.4308 10.9842 17.2736 10.6697 17.0377C10.3552 16.8019 10.198 16.4874 10.0408 16.1729C9.88355 15.8585 9.80493 15.4654 9.80493 15.0723C9.80493 14.1289 10.198 13.3428 10.9056 12.8711C11.6131 12.3207 12.7137 12.0849 14.1288 12.0849H15.4653V11.5346C15.4653 11.0629 15.3081 10.7484 15.0722 10.5126C14.7578 10.2767 14.3647 10.1195 13.8144 10.1195C13.3427 10.1195 13.0282 10.1981 12.7924 10.434C12.5565 10.6698 12.4779 10.9057 12.4779 11.2201H10.1194C10.1194 10.827 10.198 10.434 10.3552 10.1195C10.5125 9.80502 10.7483 9.49055 11.1414 9.17609C11.4559 8.94024 11.849 8.70439 12.3207 8.54716C12.7924 8.38993 13.3427 8.31131 13.9716 8.31131C14.5219 8.31131 14.9936 8.38993 15.4653 8.54716C15.937 8.70439 16.3301 8.86162 16.7232 9.17609C17.0376 9.41194 17.3521 9.80502 17.5093 10.1981C17.6666 10.5912 17.8238 11.0629 17.8238 11.6132V15.544C17.8238 16.0157 17.8238 16.4088 17.9024 16.7233C17.981 17.0377 18.0596 17.3522 18.1383 17.5094V17.6667H15.7012ZM13.4213 16.0157C13.6571 16.0157 13.893 16.0157 14.0502 15.9371C14.2861 15.8585 14.4433 15.7799 14.6005 15.7012C14.7578 15.6226 14.915 15.544 14.9936 15.3868C15.0722 15.3082 15.2295 15.1509 15.3081 15.0723V13.5H14.1288C13.7358 13.5 13.4213 13.5 13.1854 13.5786C12.9496 13.6572 12.7137 13.7358 12.5565 13.8931C12.3993 14.0503 12.242 14.1289 12.1634 14.3648C12.0848 14.522 12.0848 14.7579 12.0848 14.9151C12.0848 15.2296 12.1634 15.4654 12.3993 15.7012C12.6351 15.9371 13.0282 16.0157 13.4213 16.0157Z" fill="white"/>
</svg>
