<svg width="185" height="46" viewBox="0 0 185 46" fill="none" xmlns="http://www.w3.org/2000/svg">
<path fill-rule="evenodd" clip-rule="evenodd" d="M4.93422 28.2929C5.97742 29.3301 5.9774 31.0117 4.93418 32.0489L4.88075 32.102C3.83753 33.1392 2.14615 33.1392 1.10295 32.102C0.0597454 31.0648 0.0597615 29.3832 1.10298 28.346L1.15641 28.2929C2.19963 27.2557 3.89101 27.2557 4.93422 28.2929Z" fill="#FFFEF3"/>
<path fill-rule="evenodd" clip-rule="evenodd" d="M17.4928 29.093C18.5341 30.132 18.5311 31.8136 17.486 32.8489L10.0864 40.1792C9.04133 41.2145 7.34996 41.2115 6.30863 40.1724C5.26731 39.1334 5.27037 37.4517 6.31546 36.4164L13.715 29.0862C14.7601 28.0509 16.4515 28.0539 17.4928 29.093Z" fill="#FFFEF3"/>
<path fill-rule="evenodd" clip-rule="evenodd" d="M27.5358 41.7115C28.3541 40.4911 30.0126 40.1613 31.2402 40.9749L31.4005 41.0812C32.628 41.8948 32.9597 43.5438 32.1414 44.7642C31.323 45.9847 29.6645 46.3145 28.4369 45.5008L28.2766 45.3946C27.0491 44.581 26.7174 42.932 27.5358 41.7115Z" fill="#FFFEF3"/>
<path fill-rule="evenodd" clip-rule="evenodd" d="M45.1642 28.1335C46.2074 29.1707 46.2074 30.8524 45.1642 31.8895L41.5312 35.5016C40.488 36.5387 38.7966 36.5387 37.7534 35.5016C36.7102 34.4644 36.7102 32.7827 37.7534 31.7456L41.3864 28.1335C42.4296 27.0964 44.1209 27.0964 45.1642 28.1335Z" fill="#FFFEF3"/>
<path fill-rule="evenodd" clip-rule="evenodd" d="M45.2176 14.7744C46.2608 15.8116 46.2608 17.4932 45.2176 18.5304L18.3709 45.2221C17.3277 46.2593 15.6363 46.2593 14.5931 45.2221C13.5499 44.1849 13.5499 42.5033 14.5931 41.4661L41.4398 14.7744C42.483 13.7372 44.1744 13.7372 45.2176 14.7744Z" fill="#FFFEF3"/>
<path fill-rule="evenodd" clip-rule="evenodd" d="M40.1421 6.56773C41.1853 7.60492 41.1853 9.28654 40.1421 10.3237L24.7019 25.6748C23.6587 26.712 21.9673 26.712 20.9241 25.6748C19.8809 24.6376 19.8809 22.956 20.9241 21.9188L36.3643 6.56773C37.4075 5.53054 39.0989 5.53054 40.1421 6.56773Z" fill="#FFFEF3"/>
<path fill-rule="evenodd" clip-rule="evenodd" d="M31.9933 1.36092C33.0372 2.39742 33.0384 4.07903 31.9959 5.11692L12.148 24.8767C11.1055 25.9146 9.41412 25.9157 8.3702 24.8793C7.32629 23.8428 7.32515 22.1612 8.36766 21.1233L28.2155 1.36345C29.258 0.325564 30.9494 0.324433 31.9933 1.36092Z" fill="#FFFEF3"/>
<path fill-rule="evenodd" clip-rule="evenodd" d="M12.337 7.68644C13.3784 8.72541 13.3755 10.407 12.3305 11.4424L4.55696 19.1445C3.51195 20.1799 1.82058 20.177 0.779161 19.138C-0.262254 18.0991 -0.259343 16.4175 0.785663 15.3821L8.55918 7.67997C9.60419 6.64457 11.2956 6.64747 12.337 7.68644Z" fill="#FFFEF3"/>
<path fill-rule="evenodd" clip-rule="evenodd" d="M17.0964 0C18.5717 0 19.7677 1.18908 19.7677 2.65589V2.92148C19.7677 4.38828 18.5717 5.57737 17.0964 5.57737C15.6211 5.57737 14.4251 4.38828 14.4251 2.92148V2.65589C14.4251 1.18908 15.6211 0 17.0964 0Z" fill="#FFFEF3"/>
<path d="M68.9885 6.44H77.2685L89.0445 39.1H81.7765L79.3845 32.154H66.8265L64.4345 39.1H57.2125L68.9885 6.44ZM77.4525 26.404L73.1285 13.8L68.8045 26.404H77.4525Z" fill="#FDFDFD"/>
<path d="M92.7985 6.44H99.7905V20.7L111.659 6.44H119.801L107.795 20.838L120.537 39.1H112.579L103.195 25.53L99.7905 29.486V39.1H92.7985V6.44Z" fill="#FDFDFD"/>
<path d="M125.232 6.44H132.96L145.932 28.98V6.44H152.924V39.1H145.104L132.224 17.342V39.1H125.232V6.44Z" fill="#FDFDFD"/>
<path d="M167.368 12.328H157.57V6.44H184.158V12.328H174.406V39.1H167.368V12.328Z" fill="#FDFDFD"/>
</svg>
