<svg width="206" height="47" viewBox="0 0 206 47" fill="none" xmlns="http://www.w3.org/2000/svg">
<g clip-path="url(#clip0_62_145)">
<path d="M85.0787 0V18.7929H75.6822V9.39645H66.268V18.7929H75.6822V28.2071H66.268V47H56.8716V0H85.0787Z" fill="white"/>
<path d="M91.7983 47V0H101.195V47H91.7983Z" fill="white"/>
<path d="M107.915 18.7929V0H117.311V18.7929H107.915ZM107.915 47V28.2071H117.311V47H107.915ZM117.329 28.2071V18.7929H126.725V28.2071H117.329ZM126.725 18.7929V0H136.122V18.7929H126.725ZM126.725 47V28.2071H136.139V47H126.725Z" fill="white"/>
<path d="M152.237 9.39645V18.7929H161.633V28.2071H152.237V37.6035H171.03V47H142.823V0H171.03V9.39645H152.237Z" fill="white"/>
<path d="M205.956 37.6035V47H177.749V0H187.145V37.6035H205.956Z" fill="white"/>
</g>
<path fill-rule="evenodd" clip-rule="evenodd" d="M5.0416 28.9081C6.10748 29.9678 6.10746 31.686 5.04156 32.7457L4.98697 32.8C3.92107 33.8597 2.19292 33.8597 1.12704 32.8C0.0611557 31.7402 0.061172 30.0221 1.12707 28.9623L1.18166 28.9081C2.24756 27.8483 3.97571 27.8484 5.0416 28.9081Z" fill="white"/>
<path fill-rule="evenodd" clip-rule="evenodd" d="M17.8731 29.7255C18.9371 30.7872 18.934 32.5053 17.8662 33.5632L10.3058 41.0528C9.23794 42.1106 7.5098 42.1075 6.44583 41.0458C5.38187 39.9842 5.385 38.266 6.45281 37.2082L14.0132 29.7186C15.081 28.6608 16.8092 28.6639 17.8731 29.7255Z" fill="white"/>
<path fill-rule="evenodd" clip-rule="evenodd" d="M28.1345 42.6183C28.9706 41.3713 30.6652 41.0344 31.9194 41.8657L32.0832 41.9743C33.3374 42.8056 33.6764 44.4904 32.8402 45.7374C32.004 46.9844 30.3095 47.3213 29.0552 46.49L28.8915 46.3815C27.6372 45.5501 27.2983 43.8653 28.1345 42.6183Z" fill="white"/>
<path fill-rule="evenodd" clip-rule="evenodd" d="M46.1462 28.7452C47.2121 29.805 47.2121 31.5232 46.1462 32.5829L42.4343 36.2734C41.3684 37.3332 39.6402 37.3332 38.5743 36.2734C37.5084 35.2137 37.5084 33.4955 38.5743 32.4358L42.2863 28.7452C43.3522 27.6855 45.0803 27.6855 46.1462 28.7452Z" fill="white"/>
<path fill-rule="evenodd" clip-rule="evenodd" d="M46.2005 15.0956C47.2664 16.1553 47.2664 17.8735 46.2005 18.9332L18.7702 46.2052C17.7043 47.2649 15.9761 47.2649 14.9103 46.2052C13.8444 45.1454 13.8444 43.4273 14.9103 42.3675L42.3406 15.0956C43.4065 14.0358 45.1346 14.0358 46.2005 15.0956Z" fill="white"/>
<path fill-rule="evenodd" clip-rule="evenodd" d="M41.0148 6.71057C42.0807 7.77031 42.0807 9.48848 41.0148 10.5482L25.2389 26.233C24.173 27.2927 22.4449 27.2927 21.379 26.233C20.3131 25.1732 20.3131 23.4551 21.379 22.3953L37.1549 6.71057C38.2207 5.65084 39.9489 5.65084 41.0148 6.71057Z" fill="white"/>
<path fill-rule="evenodd" clip-rule="evenodd" d="M32.6888 1.39044C33.7555 2.44946 33.7566 4.16763 32.6914 5.22808L12.4121 25.4174C11.3469 26.4779 9.61879 26.479 8.55218 25.42C7.48557 24.361 7.48441 22.6428 8.54959 21.5824L28.8289 1.39302C29.8941 0.332568 31.6222 0.331413 32.6888 1.39044Z" fill="white"/>
<path fill-rule="evenodd" clip-rule="evenodd" d="M12.6052 7.85353C13.6692 8.91509 13.6663 10.6333 12.5985 11.6912L4.65603 19.5607C3.5883 20.6186 1.86015 20.6156 0.796099 19.5541C-0.267955 18.4925 -0.264981 16.7743 0.802743 15.7164L8.74525 7.84692C9.81298 6.78901 11.5411 6.79197 12.6052 7.85353Z" fill="white"/>
<path fill-rule="evenodd" clip-rule="evenodd" d="M17.4682 0C18.9756 0 20.1975 1.21493 20.1975 2.71362V2.98499C20.1975 4.48368 18.9756 5.69861 17.4682 5.69861C15.9608 5.69861 14.7388 4.48368 14.7388 2.98499V2.71362C14.7388 1.21493 15.9608 0 17.4682 0Z" fill="white"/>
<defs>
<clipPath id="clip0_62_145">
<rect width="149.084" height="47" fill="white" transform="translate(56.8716)"/>
</clipPath>
</defs>
</svg>
