<svg width="81" height="20" viewBox="0 0 81 20" fill="none" xmlns="http://www.w3.org/2000/svg">
<path fill-rule="evenodd" clip-rule="evenodd" d="M2.14534 12.3012C2.59891 12.7522 2.5989 13.4833 2.14533 13.9343L2.1221 13.9574C1.66852 14.4083 0.933141 14.4083 0.479574 13.9574C0.0260082 13.5064 0.0260151 12.7753 0.47959 12.3243L0.502819 12.3012C0.956394 11.8503 1.69178 11.8503 2.14534 12.3012Z" fill="#FFFEF3"/>
<path fill-rule="evenodd" clip-rule="evenodd" d="M7.60555 12.6491C8.0583 13.1009 8.05697 13.832 7.60258 14.2822L4.38539 17.4692C3.931 17.9194 3.19562 17.9181 2.74287 17.4663C2.29012 17.0145 2.29145 16.2834 2.74584 15.8333L5.96303 12.6462C6.41742 12.1961 7.1528 12.1974 7.60555 12.6491Z" fill="#FFFEF3"/>
<path fill-rule="evenodd" clip-rule="evenodd" d="M11.972 18.1354C12.3279 17.6048 13.049 17.4614 13.5827 17.8152L13.6524 17.8613C14.1861 18.2151 14.3303 18.932 13.9745 19.4627C13.6187 19.9933 12.8976 20.1367 12.3639 19.7829L12.2942 19.7367C11.7605 19.383 11.6162 18.6661 11.972 18.1354Z" fill="#FFFEF3"/>
<path fill-rule="evenodd" clip-rule="evenodd" d="M19.6366 12.232C20.0902 12.683 20.0902 13.4141 19.6366 13.8651L18.057 15.4355C17.6035 15.8864 16.8681 15.8864 16.4145 15.4355C15.9609 14.9845 15.9609 14.2534 16.4145 13.8025L17.9941 12.232C18.4476 11.7811 19.183 11.7811 19.6366 12.232Z" fill="#FFFEF3"/>
<path fill-rule="evenodd" clip-rule="evenodd" d="M19.6598 6.42366C20.1134 6.87462 20.1134 7.60575 19.6598 8.0567L7.98734 19.6618C7.53377 20.1127 6.79839 20.1127 6.34482 19.6618C5.89125 19.2108 5.89125 18.4797 6.34482 18.0287L18.0173 6.42366C18.4709 5.97271 19.2062 5.97271 19.6598 6.42366Z" fill="#FFFEF3"/>
<path fill-rule="evenodd" clip-rule="evenodd" d="M17.453 2.85555C17.9066 3.3065 17.9066 4.03764 17.453 4.48859L10.7399 11.163C10.2863 11.6139 9.55095 11.6139 9.09738 11.163C8.64381 10.712 8.64381 9.98086 9.09738 9.52991L15.8105 2.85555C16.2641 2.4046 16.9995 2.4046 17.453 2.85555Z" fill="#FFFEF3"/>
<path fill-rule="evenodd" clip-rule="evenodd" d="M13.9101 0.591693C14.364 1.04234 14.3645 1.77348 13.9112 2.22473L5.28172 10.816C4.82845 11.2672 4.09307 11.2677 3.63919 10.8171C3.18532 10.3664 3.18482 9.63527 3.63809 9.18401L12.2676 0.592791C12.7209 0.141536 13.4562 0.141045 13.9101 0.591693Z" fill="#FFFEF3"/>
<path fill-rule="evenodd" clip-rule="evenodd" d="M5.36391 3.34194C5.81669 3.79367 5.81543 4.5248 5.36108 4.97498L1.98129 8.32371C1.52694 8.77388 0.791555 8.77262 0.338766 8.3209C-0.114024 7.86917 -0.112758 7.13803 0.341593 6.68786L3.72138 3.33913C4.17573 2.88895 4.91112 2.89021 5.36391 3.34194Z" fill="#FFFEF3"/>
<path fill-rule="evenodd" clip-rule="evenodd" d="M7.43317 0C8.07461 0 8.59461 0.516992 8.59461 1.15473V1.27021C8.59461 1.90795 8.07461 2.42494 7.43317 2.42494C6.79172 2.42494 6.27173 1.90795 6.27173 1.27021V1.15473C6.27173 0.516992 6.79172 0 7.43317 0Z" fill="#FFFEF3"/>
<path d="M29.995 2.8H33.595L38.715 17H35.555L34.515 13.98H29.055L28.015 17H24.875L29.995 2.8ZM33.675 11.48L31.795 6L29.915 11.48H33.675ZM40.3472 2.8H43.3872V9L48.5472 2.8H52.0872L46.8672 9.06L52.4072 17H48.9472L44.8672 11.1L43.3872 12.82V17H40.3472V2.8ZM54.4488 2.8H57.8088L63.4488 12.6V2.8H66.4888V17H63.0888L57.4888 7.54V17H54.4488V2.8ZM72.7688 5.36H68.5088V2.8H80.0688V5.36H75.8288V17H72.7688V5.36Z" fill="#FDFDFD"/>
</svg>
