<svg width="439" height="100" viewBox="0 0 439 100" fill="none" xmlns="http://www.w3.org/2000/svg">
<g clip-path="url(#clip0_62_145)">
<path d="M181.015 0V39.9849H161.023V19.9925H140.992V39.9849H161.023V60.0151H140.992V100H121V0H181.015Z" fill="#AACCFF"/>
<path d="M195.312 100V0H215.305V100H195.312Z" fill="#AACCFF"/>
<path d="M229.602 39.9849V0H249.595V39.9849H229.602ZM229.602 100V60.0151H249.595V100H229.602ZM249.632 60.0151V39.9849H269.625V60.0151H249.632ZM269.625 39.9849V0H289.617V39.9849H269.625ZM269.625 100V60.0151H289.655V100H269.625Z" fill="#AACCFF"/>
<path d="M323.905 19.9925V39.9849H343.898V60.0151H323.905V80.0075H363.89V100H303.875V0H363.89V19.9925H323.905Z" fill="#AACCFF"/>
<path d="M438.2 80.0075V100H378.185V0H398.178V80.0075H438.2Z" fill="#AACCFF"/>
</g>
<path fill-rule="evenodd" clip-rule="evenodd" d="M10.7265 61.5063C12.9943 63.7611 12.9943 67.4168 10.7264 69.6715L10.6102 69.787C8.34238 72.0417 4.66546 72.0417 2.39763 69.7869C0.129797 67.5321 0.129831 63.8764 2.39771 61.6217L2.51385 61.5062C4.78173 59.2515 8.45864 59.2515 10.7265 61.5063Z" fill="#AACCFF"/>
<path fill-rule="evenodd" clip-rule="evenodd" d="M38.0279 63.2456C40.2916 65.5044 40.285 69.1601 38.013 71.4108L21.9271 87.3461C19.6551 89.5968 15.9782 89.5902 13.7145 87.3314C11.4507 85.0725 11.4574 81.4168 13.7293 79.1662L29.8153 63.2308C32.0872 60.9801 35.7641 60.9867 38.0279 63.2456Z" fill="#AACCFF"/>
<path fill-rule="evenodd" clip-rule="evenodd" d="M59.8602 90.6773C61.6393 88.0242 65.2448 87.3072 67.9134 89.076L68.2618 89.307C70.9304 91.0757 71.6515 94.6604 69.8724 97.3136C68.0934 99.9668 64.4878 100.684 61.8193 98.9149L61.4708 98.684C58.8023 96.9152 58.0812 93.3305 59.8602 90.6773Z" fill="#AACCFF"/>
<path fill-rule="evenodd" clip-rule="evenodd" d="M98.1829 61.1598C100.451 63.4146 100.451 67.0703 98.1829 69.325L90.2851 77.1772C88.0172 79.432 84.3403 79.432 82.0725 77.1772C79.8046 74.9225 79.8046 71.2668 82.0725 69.012L89.9703 61.1598C92.2381 58.9051 95.915 58.9051 98.1829 61.1598Z" fill="#AACCFF"/>
<path fill-rule="evenodd" clip-rule="evenodd" d="M98.2993 32.1183C100.567 34.3731 100.567 38.0288 98.2993 40.2835L39.937 98.3089C37.6691 100.564 33.9922 100.564 31.7243 98.3089C29.4565 96.0542 29.4565 92.3985 31.7243 90.1437L90.0867 32.1183C92.3546 29.8636 96.0315 29.8636 98.2993 32.1183Z" fill="#AACCFF"/>
<path fill-rule="evenodd" clip-rule="evenodd" d="M87.2653 14.2777C89.5331 16.5325 89.5331 20.1882 87.2653 22.4429L53.6996 55.8148C51.4318 58.0695 47.7549 58.0695 45.487 55.8148C43.2192 53.56 43.2192 49.9043 45.487 47.6496L79.0526 14.2777C81.3205 12.023 84.9974 12.023 87.2653 14.2777Z" fill="#AACCFF"/>
<path fill-rule="evenodd" clip-rule="evenodd" d="M69.5509 2.95859C71.8203 5.21183 71.8228 8.86752 69.5564 11.1238L26.4089 54.0799C24.1426 56.3362 20.4657 56.3386 18.1963 54.0854C15.927 51.8322 15.9245 48.1765 18.1908 45.9202L61.3383 2.96408C63.6046 0.707804 67.2815 0.705346 69.5509 2.95859Z" fill="#AACCFF"/>
<path fill-rule="evenodd" clip-rule="evenodd" d="M26.8195 16.7096C29.0835 18.9682 29.0771 22.6239 26.8054 24.8748L9.90644 41.6184C7.63468 43.8693 3.95777 43.863 1.69383 41.6044C-0.570118 39.3457 -0.563789 35.6901 1.70796 33.4392L18.6069 16.6955C20.8787 14.4446 24.5556 14.4509 26.8195 16.7096Z" fill="#AACCFF"/>
<path fill-rule="evenodd" clip-rule="evenodd" d="M37.1661 0C40.3733 0 42.9733 2.58496 42.9733 5.77367V6.35104C42.9733 9.53975 40.3733 12.1247 37.1661 12.1247C33.9589 12.1247 31.3589 9.53975 31.3589 6.35104V5.77367C31.3589 2.58496 33.9589 0 37.1661 0Z" fill="#AACCFF"/>
<defs>
<clipPath id="clip0_62_145">
<rect width="317.2" height="100" fill="white" transform="translate(121)"/>
</clipPath>
</defs>
</svg>
