<svg width="200" height="54" viewBox="0 0 200 54" fill="none" xmlns="http://www.w3.org/2000/svg">
<path fill-rule="evenodd" clip-rule="evenodd" d="M5.41254 31.0353C6.55686 32.1731 6.55684 34.0177 5.4125 35.1554L5.3539 35.2136C4.20955 36.3514 2.35423 36.3513 1.20991 35.2136C0.0655934 34.0759 0.065611 32.2313 1.20995 31.0935L1.26856 31.0353C2.4129 29.8976 4.26822 29.8976 5.41254 31.0353Z" fill="#FFFEF3"/>
<path fill-rule="evenodd" clip-rule="evenodd" d="M19.1884 31.9129C20.3307 33.0527 20.3273 34.8973 19.1809 36.033L11.0642 44.0737C9.91776 45.2094 8.06244 45.206 6.92018 44.0663C5.77792 42.9265 5.78127 41.0819 6.92767 39.9462L15.0444 31.9054C16.1908 30.7698 18.0462 30.7731 19.1884 31.9129Z" fill="#FFFEF3"/>
<path fill-rule="evenodd" clip-rule="evenodd" d="M30.2047 45.7546C31.1024 44.4158 32.9217 44.0541 34.2682 44.9466L34.444 45.0631C35.7906 45.9556 36.1544 47.7644 35.2567 49.1031C34.3591 50.4419 32.5398 50.8037 31.1932 49.9112L31.0174 49.7946C29.6709 48.9021 29.307 47.0933 30.2047 45.7546Z" fill="#FFFEF3"/>
<path fill-rule="evenodd" clip-rule="evenodd" d="M49.5419 30.8605C50.6863 31.9982 50.6863 33.8428 49.5419 34.9806L45.5568 38.9427C44.4125 40.0804 42.5571 40.0804 41.4128 38.9427C40.2685 37.8049 40.2685 35.9603 41.4128 34.8226L45.3979 30.8605C46.5423 29.7228 48.3976 29.7228 49.5419 30.8605Z" fill="#FFFEF3"/>
<path fill-rule="evenodd" clip-rule="evenodd" d="M49.6004 16.2065C50.7448 17.3442 50.7448 19.1888 49.6004 20.3266L20.1515 49.6054C19.0072 50.7432 17.1519 50.7432 16.0075 49.6054C14.8632 48.4677 14.8632 46.6231 16.0075 45.4854L45.4564 16.2065C46.6008 15.0688 48.4561 15.0688 49.6004 16.2065Z" fill="#FFFEF3"/>
<path fill-rule="evenodd" clip-rule="evenodd" d="M44.033 7.20434C45.1773 8.34206 45.1773 10.1867 44.033 11.3244L27.0962 28.1634C25.9519 29.3011 24.0966 29.3011 22.9522 28.1634C21.8079 27.0257 21.8079 25.1811 22.9522 24.0433L39.889 7.20433C41.0334 6.06661 42.8887 6.06661 44.033 7.20434Z" fill="#FFFEF3"/>
<path fill-rule="evenodd" clip-rule="evenodd" d="M35.0944 1.49284C36.2395 2.62979 36.2408 4.47441 35.0972 5.61289L13.3255 27.288C12.182 28.4265 10.3266 28.4277 9.18154 27.2908C8.03644 26.1538 8.03519 24.3092 9.17875 23.1707L30.9504 1.49561C32.094 0.35712 33.9493 0.35588 35.0944 1.49284Z" fill="#FFFEF3"/>
<path fill-rule="evenodd" clip-rule="evenodd" d="M13.5328 8.43149C14.6751 9.57117 14.672 11.4158 13.5257 12.5515L4.99866 21.0002C3.85236 22.1359 1.99704 22.1328 0.854684 20.9931C-0.287674 19.8534 -0.284481 18.0088 0.861816 16.873L9.38881 8.4244C10.5351 7.28863 12.3904 7.29181 13.5328 8.43149Z" fill="#FFFEF3"/>
<path fill-rule="evenodd" clip-rule="evenodd" d="M18.7535 0C20.3718 0 21.6837 1.30434 21.6837 2.91332V3.20465C21.6837 4.81364 20.3718 6.11797 18.7535 6.11797C17.1352 6.11797 15.8232 4.81364 15.8232 3.20465V2.91332C15.8232 1.30434 17.1352 0 18.7535 0Z" fill="#FFFEF3"/>
<path d="M78.0187 38L74.1387 27.28H64.7387L60.8587 38H57.2987L69.4587 6.4H69.5387L81.6587 38H78.0187ZM65.7787 24.4H73.0987L70.1787 16.32C69.8054 15.2533 69.5654 14.2267 69.4587 13.24C69.3787 14.0933 69.1387 15.12 68.7387 16.32L65.7787 24.4ZM85.0734 38V21.2H88.1934L88.1134 23.84C88.4868 22.88 89.0601 22.1333 89.8334 21.6C90.6068 21.0667 91.4734 20.8 92.4334 20.8C93.8734 20.8 95.0068 21.4133 95.8334 22.64L94.0334 25.24C93.5534 24.3333 92.8468 23.88 91.9134 23.88C90.7668 23.88 89.8601 24.4267 89.1934 25.52C88.5268 26.5867 88.1934 28.0133 88.1934 29.8V38H85.0734ZM104.07 39.6L96.83 21.2H100.31L103.67 31.04C103.963 31.84 104.15 32.52 104.23 33.08C104.31 32.4667 104.497 31.7867 104.79 31.04L109.43 19.6H109.51L114.27 31.2C114.59 31.8933 114.777 32.52 114.83 33.08C114.857 32.5733 115.003 31.96 115.27 31.24L118.75 21.2H122.15L114.95 39.6H114.87L110.03 27.84C109.71 27.0133 109.523 26.2933 109.47 25.68C109.443 26.2667 109.257 27 108.91 27.88L104.15 39.6H104.07ZM132.68 35.8C134.84 35.8 136.627 35 138.04 33.4L140 35.52C138.027 37.5467 135.507 38.56 132.44 38.56C129.88 38.56 127.813 37.7467 126.24 36.12C124.693 34.4667 123.92 32.2933 123.92 29.6C123.92 26.9067 124.693 24.7467 126.24 23.12C127.787 21.4667 129.827 20.64 132.36 20.64C134.787 20.64 136.747 21.4933 138.24 23.2C139.76 24.88 140.533 27.12 140.56 29.92H127.08C127.133 31.76 127.653 33.2 128.64 34.24C129.627 35.28 130.973 35.8 132.68 35.8ZM132.36 23.4C131.507 23.4 130.733 23.56 130.04 23.88C129.373 24.1733 128.8 24.6133 128.32 25.2C127.867 25.7867 127.533 26.4933 127.32 27.32H137.28C137.067 26.0667 136.533 25.1067 135.68 24.44C134.827 23.7467 133.72 23.4 132.36 23.4ZM157.207 21.2H160.367V38H157.207L157.367 35C156.061 37.3733 154.021 38.56 151.247 38.56C148.954 38.56 147.101 37.7467 145.687 36.12C144.301 34.4667 143.607 32.2933 143.607 29.6C143.607 26.9067 144.314 24.7467 145.727 23.12C147.141 21.4667 149.007 20.64 151.327 20.64C154.074 20.64 156.087 21.8133 157.367 24.16L157.207 21.2ZM151.887 35.68C152.981 35.68 153.941 35.4267 154.767 34.92C155.594 34.3867 156.221 33.6667 156.647 32.76C157.074 31.8267 157.287 30.7733 157.287 29.6C157.287 27.7867 156.807 26.32 155.847 25.2C154.887 24.0533 153.581 23.48 151.927 23.48C150.354 23.48 149.101 24.04 148.167 25.16C147.261 26.2533 146.807 27.7333 146.807 29.6C146.807 31.4667 147.261 32.9467 148.167 34.04C149.074 35.1333 150.314 35.68 151.887 35.68ZM178.996 21.2L171.156 39.6H171.076L163.236 21.2H166.716L170.596 31.24C170.916 32.0933 171.116 32.8533 171.196 33.52C171.25 32.96 171.436 32.2 171.756 31.24L175.556 21.2H178.996ZM189.477 35.8C191.637 35.8 193.424 35 194.837 33.4L196.797 35.52C194.824 37.5467 192.304 38.56 189.237 38.56C186.677 38.56 184.61 37.7467 183.037 36.12C181.49 34.4667 180.717 32.2933 180.717 29.6C180.717 26.9067 181.49 24.7467 183.037 23.12C184.584 21.4667 186.624 20.64 189.157 20.64C191.584 20.64 193.544 21.4933 195.037 23.2C196.557 24.88 197.33 27.12 197.357 29.92H183.877C183.93 31.76 184.45 33.2 185.437 34.24C186.424 35.28 187.77 35.8 189.477 35.8ZM189.157 23.4C188.304 23.4 187.53 23.56 186.837 23.88C186.17 24.1733 185.597 24.6133 185.117 25.2C184.664 25.7867 184.33 26.4933 184.117 27.32H194.077C193.864 26.0667 193.33 25.1067 192.477 24.44C191.624 23.7467 190.517 23.4 189.157 23.4Z" fill="#FFFEF3"/>
</svg>
